<svg width="9" height="12" viewBox="0 0 9 12" fill="none" xmlns="http://www.w3.org/2000/svg">
<path d="M2.03144 1.29141C2.29262 0.923821 2.65054 0.619105 3.10519 0.377267C3.56952 0.125756 4.09673 0 4.68681 0C5.37363 0 5.99274 0.169287 6.54413 0.50786C7.10519 0.846433 7.54534 1.33011 7.86457 1.95889C8.19347 2.57799 8.35791 3.29867 8.35791 4.12092C8.35791 4.94317 8.19347 5.67352 7.86457 6.31197C7.54534 6.94075 7.10519 7.42926 6.54413 7.77751C5.99274 8.12575 5.37363 8.29988 4.68681 8.29988C4.09673 8.29988 3.57436 8.17896 3.1197 7.93712C2.67472 7.69528 2.31197 7.39057 2.03144 7.02297V12H0V0.130592H2.03144V1.29141ZM6.28295 4.12092C6.28295 3.63724 6.18137 3.22128 5.97823 2.87303C5.78476 2.51511 5.52357 2.24426 5.19467 2.06046C4.87545 1.87666 4.5272 1.78476 4.14994 1.78476C3.78234 1.78476 3.43409 1.8815 3.10519 2.07497C2.78597 2.25877 2.52479 2.52962 2.32164 2.88754C2.12817 3.24546 2.03144 3.66626 2.03144 4.14994C2.03144 4.63361 2.12817 5.05441 2.32164 5.41233C2.52479 5.77025 2.78597 6.04595 3.10519 6.23942C3.43409 6.42321 3.78234 6.51511 4.14994 6.51511C4.5272 6.51511 4.87545 6.41838 5.19467 6.22491C5.52357 6.03144 5.78476 5.75574 5.97823 5.39782C6.18137 5.0399 6.28295 4.61427 6.28295 4.12092Z" fill="white"/>
</svg>
