<svg width="8" height="9" viewBox="0 0 8 9" fill="none" xmlns="http://www.w3.org/2000/svg">
<path d="M3.94388 8.02809C3.19533 8.02809 2.52164 7.86435 1.92281 7.53686C1.32398 7.20002 0.85147 6.7275 0.50527 6.11931C0.168427 5.51113 0 4.80937 0 4.01405C0 3.21872 0.173105 2.51696 0.519305 1.90878C0.874861 1.30059 1.35673 0.832751 1.96492 0.505265C2.5731 0.168422 3.25148 0 4.00002 0C4.74856 0 5.42692 0.168422 6.03511 0.505265C6.6433 0.832751 7.12049 1.30059 7.46669 1.90878C7.82225 2.51696 8.00002 3.21872 8.00002 4.01405C8.00002 4.80937 7.81757 5.51113 7.45266 6.11931C7.0971 6.7275 6.61055 7.20002 5.993 7.53686C5.38481 7.86435 4.70177 8.02809 3.94388 8.02809ZM3.94388 6.31581C4.29943 6.31581 4.63159 6.23159 4.94036 6.06317C5.25849 5.88539 5.51113 5.62341 5.69827 5.27721C5.8854 4.93101 5.97897 4.50995 5.97897 4.01405C5.97897 3.27486 5.78247 2.70878 5.38949 2.3158C5.00586 1.91346 4.53335 1.71229 3.97195 1.71229C3.41054 1.71229 2.93802 1.91346 2.5544 2.3158C2.18013 2.70878 1.99299 3.27486 1.99299 4.01405C1.99299 4.75323 2.17545 5.32399 2.54036 5.72633C2.91463 6.11931 3.38247 6.31581 3.94388 6.31581Z" fill="white"/>
</svg>
