<svg width="8" height="10" viewBox="0 0 8 10" fill="none" xmlns="http://www.w3.org/2000/svg">
<path d="M5.15758 10L2.95128 6.10315H2.00573V10H0V0H3.75358C4.52722 0 5.18624 0.138491 5.73066 0.415473C6.27507 0.682903 6.68098 1.05062 6.94841 1.51862C7.2254 1.97708 7.36389 2.49284 7.36389 3.0659C7.36389 3.72493 7.17287 4.32187 6.79082 4.85673C6.40878 5.38204 5.84049 5.74498 5.08595 5.94556L7.47851 10H5.15758ZM2.00573 4.59885H3.68195C4.22636 4.59885 4.63228 4.46991 4.89971 4.21203C5.16714 3.9446 5.30086 3.57689 5.30086 3.10888C5.30086 2.65043 5.16714 2.29704 4.89971 2.04871C4.63228 1.79083 4.22636 1.66189 3.68195 1.66189H2.00573V4.59885Z" fill="white"/>
</svg>
