<svg width="8" height="8" viewBox="0 0 8 8" fill="none" xmlns="http://www.w3.org/2000/svg">
<path d="M4.38099 1.03987L5.03717 2.36283C5.10067 2.48983 5.22768 2.58509 5.36527 2.60625L6.82581 2.81793C7.18565 2.87084 7.33382 3.31536 7.06923 3.56936L6.01087 4.59598C5.90503 4.69123 5.8627 4.8394 5.88386 4.98757L6.13787 6.43753C6.20137 6.79737 5.82036 7.07255 5.50285 6.90321L4.20106 6.21527C4.07406 6.15177 3.91531 6.15177 3.7883 6.21527L2.48652 6.90321C2.15842 7.07255 1.788 6.79737 1.8515 6.43753L2.10551 4.98757C2.12667 4.8394 2.08434 4.70181 1.9785 4.59598L0.930722 3.56936C0.666131 3.31536 0.814301 2.87084 1.17414 2.81793L2.63469 2.60625C2.78286 2.58509 2.89928 2.50042 2.96278 2.36283L3.60838 1.03987C3.75655 0.711782 4.22223 0.711782 4.38099 1.03987Z" stroke="white" stroke-width="1.5" stroke-linecap="round" stroke-linejoin="round"/>
</svg>
