<svg width="20" height="20" viewBox="0 0 20 20" fill="none" xmlns="http://www.w3.org/2000/svg">
<path fill-rule="evenodd" clip-rule="evenodd" d="M6.66555 0.727732C6.68848 1.15195 6.36317 1.51443 5.93896 1.53736C4.29163 1.6264 3.26495 1.97254 2.61759 2.67328C1.96164 3.38332 1.53846 4.62647 1.53846 6.90258V13.0564C1.53846 15.0941 1.80648 16.3704 2.50198 17.1653C3.17525 17.9347 4.4253 18.441 6.92308 18.441H13.0769C15.5747 18.441 16.8248 17.9347 17.498 17.1653C18.1935 16.3704 18.4615 15.0941 18.4615 13.0564V6.90258C18.4615 4.62082 18.0382 3.37827 17.3828 2.66983C16.7358 1.97051 15.7096 1.62647 14.061 1.53736C13.6368 1.51443 13.3115 1.15195 13.3345 0.727732C13.3574 0.303516 13.7199 -0.021789 14.1441 0.0011415C15.9109 0.0966439 17.4488 0.475681 18.5121 1.62508C19.567 2.76536 20 4.49716 20 6.90258V13.0564C20 15.1213 19.7552 16.9219 18.6558 18.1784C17.5342 19.4602 15.7074 19.9795 13.0769 19.9795H6.92308C4.29265 19.9795 2.46578 19.4602 1.34417 18.1784C0.2448 16.9219 0 15.1213 0 13.0564V6.90258C0 4.50178 0.433234 2.77056 1.48754 1.62932C2.55043 0.478786 4.08785 0.0967124 5.85592 0.0011415C6.28013 -0.021789 6.64262 0.303516 6.66555 0.727732Z" fill="white"/>
</svg>
