<svg width="9" height="9" viewBox="0 0 9 9" fill="none" xmlns="http://www.w3.org/2000/svg">
<path d="M0 4.42988C0 3.55638 0.171577 2.78167 0.514737 2.10575C0.868295 1.42983 1.34144 0.909892 1.93417 0.545936C2.5373 0.181978 3.20802 0 3.94633 0C4.59106 0 5.15259 0.129985 5.63093 0.389954C6.11967 0.649923 6.50963 0.977484 6.80079 1.37264V0.140383H9.00013V8.78176H6.80079V7.51831C6.52003 7.92386 6.13007 8.26182 5.63093 8.53219C5.14219 8.79216 4.57546 8.92214 3.93073 8.92214C3.20282 8.92214 2.5373 8.73496 1.93417 8.36061C1.34144 7.98625 0.868295 7.46112 0.514737 6.7852C0.171577 6.09888 0 5.31377 0 4.42988ZM6.80079 4.46107C6.80079 3.93073 6.6968 3.47839 6.48883 3.10403C6.28085 2.71928 6.00009 2.42811 5.64653 2.23054C5.29297 2.02256 4.91341 1.91857 4.50786 1.91857C4.10231 1.91857 3.72796 2.01736 3.3848 2.21494C3.04164 2.41251 2.76087 2.70368 2.5425 3.08843C2.33452 3.46279 2.23053 3.90994 2.23053 4.42988C2.23053 4.94981 2.33452 5.40736 2.5425 5.80251C2.76087 6.18727 3.04164 6.48363 3.3848 6.69161C3.73835 6.89958 4.11271 7.00357 4.50786 7.00357C4.91341 7.00357 5.29297 6.90478 5.64653 6.7072C6.00009 6.49923 6.28085 6.20806 6.48883 5.83371C6.6968 5.44895 6.80079 4.99141 6.80079 4.46107Z" fill="white"/>
</svg>
