<svg width="8" height="9" viewBox="0 0 8 9" fill="none" xmlns="http://www.w3.org/2000/svg">
<path d="M7.99988 3.97816C7.99988 4.26854 7.98052 4.52988 7.94181 4.76218H2.06168C2.11007 5.34294 2.31334 5.79786 2.67147 6.12695C3.0296 6.45605 3.47001 6.62059 3.99269 6.62059C4.74767 6.62059 5.28486 6.29634 5.60427 5.64783H7.79662C7.56432 6.42217 7.11908 7.061 6.46089 7.56432C5.8027 8.05796 4.99449 8.30478 4.03625 8.30478C3.26191 8.30478 2.565 8.13539 1.94552 7.79662C1.33573 7.44817 0.856618 6.95937 0.508165 6.33022C0.169392 5.70107 0 4.97513 0 4.15239C0 3.31998 0.169392 2.58919 0.508165 1.96004C0.846938 1.33089 1.32121 0.846933 1.93101 0.50816C2.5408 0.169387 3.24255 0 4.03625 0C4.8009 0 5.48329 0.164547 6.0834 0.493641C6.69319 0.822735 7.16264 1.29218 7.49173 1.90197C7.83051 2.50208 7.99988 3.19415 7.99988 3.97816ZM5.89465 3.39741C5.88497 2.87473 5.69624 2.45852 5.32843 2.14879C4.96061 1.82937 4.51052 1.66967 3.97816 1.66967C3.47484 1.66967 3.04896 1.82454 2.70051 2.13427C2.36174 2.43433 2.15363 2.85537 2.07619 3.39741H5.89465Z" fill="white"/>
</svg>
