<svg width="10" height="10" viewBox="0 0 10 10" fill="none" xmlns="http://www.w3.org/2000/svg">
<path d="M7.29313 3.07153C7.06873 2.66012 6.76017 2.34689 6.36746 2.13184C5.97476 1.91678 5.5166 1.80926 4.99299 1.80926C4.41328 1.80926 3.89902 1.94016 3.45021 2.20196C3.0014 2.46377 2.65077 2.83778 2.39832 3.32399C2.14586 3.81019 2.01964 4.3712 2.01964 5.00701C2.01964 5.66153 2.14586 6.23189 2.39832 6.7181C2.66012 7.2043 3.0201 7.57831 3.47826 7.84012C3.93642 8.10192 4.46938 8.23282 5.07714 8.23282C5.82516 8.23282 6.43759 8.03647 6.91445 7.64376C7.39131 7.24171 7.70454 6.68537 7.85414 5.97476H4.48808V4.47406H9.78963V6.18514C9.65873 6.8677 9.37822 7.49883 8.94811 8.07854C8.518 8.65826 7.96167 9.12577 7.27911 9.48107C6.60589 9.82703 5.84853 10 5.00702 10C4.06265 10 3.20711 9.78963 2.44039 9.36887C1.68303 8.93876 1.08462 8.34503 0.645162 7.58766C0.215054 6.8303 0 5.97008 0 5.00701C0 4.04395 0.215054 3.18373 0.645162 2.42637C1.08462 1.65965 1.68303 1.06592 2.44039 0.645162C3.20711 0.215054 4.05797 0 4.99299 0C6.09631 0 7.0547 0.271155 7.86817 0.813464C8.68163 1.34642 9.24264 2.09911 9.5512 3.07153H7.29313Z" fill="white"/>
</svg>
