<svg width="8" height="8" viewBox="0 0 8 8" fill="none" xmlns="http://www.w3.org/2000/svg">
<path d="M4.3701 0C5.3096 0 6.06879 0.298932 6.64768 0.896796C7.22656 1.48517 7.516 2.31079 7.516 3.37366V7.99999H5.52312V3.64412C5.52312 3.01779 5.36654 2.53855 5.05337 2.2064C4.74021 1.86477 4.31316 1.69395 3.77224 1.69395C3.22182 1.69395 2.78529 1.86477 2.46263 2.2064C2.14946 2.53855 1.99288 3.01779 1.99288 3.64412V7.99999H0V0.113879H1.99288V1.09608C2.2586 0.754448 2.59549 0.48873 3.00355 0.298932C3.42111 0.0996439 3.87663 0 4.3701 0Z" fill="white"/>
</svg>
