<svg width="10" height="6" viewBox="0 0 10 6" fill="none" xmlns="http://www.w3.org/2000/svg">
<path fill-rule="evenodd" clip-rule="evenodd" d="M2.81974 0.00016013C2.84559 0.000233599 2.87059 0.000304621 2.89466 0.000304621H7.10508C7.12915 0.000304621 7.15415 0.000233599 7.18001 0.00016013C7.64629 -0.0011645 8.39133 -0.00328109 8.99032 0.396044C9.71063 0.876249 9.99974 1.7381 9.99974 2.89497C9.99974 2.91904 9.99981 2.94404 9.99989 2.96989C10.0012 3.43618 10.0033 4.18122 9.604 4.78021C9.1238 5.50052 8.26194 5.78963 7.10508 5.78963H2.89466C2.87059 5.78963 2.84559 5.7897 2.81974 5.78977C2.35345 5.7911 1.60841 5.79322 1.00942 5.39389C0.289114 4.91369 0 4.05183 0 2.89497C0 1.7381 0.289114 0.876249 1.00942 0.396044C1.60841 -0.00328109 2.35345 -0.0011645 2.81974 0.00016013ZM1.88524 1.70977C1.81609 1.75587 1.57891 1.94662 1.57891 2.89497C1.57891 3.84331 1.81609 4.03406 1.88524 4.08016C2.04249 4.18499 2.30019 4.21072 2.89466 4.21072H7.10508C8.05343 4.21072 8.24418 3.97353 8.29027 3.90439C8.39511 3.74714 8.42084 3.48944 8.42084 2.89497C8.42084 1.94662 8.18365 1.75587 8.1145 1.70977C7.95725 1.60494 7.69955 1.57921 7.10508 1.57921H2.89466C2.30019 1.57921 2.04249 1.60494 1.88524 1.70977Z" fill="white"/>
</svg>
