<svg width="66" height="66" viewBox="0 0 66 66" fill="none" xmlns="http://www.w3.org/2000/svg">
<path d="M33 65.5C32.6707 65.5 32.3426 65.4951 32.0157 65.4854L32.0008 65.9852C31.3325 65.9653 30.6692 65.9256 30.0115 65.8665L30.0562 65.3685C29.4009 65.3097 28.7513 65.2314 28.1079 65.1343L28.0333 65.6287C27.3727 65.529 26.7185 65.4097 26.0713 65.2714L26.1758 64.7824C25.5329 64.6451 24.897 64.4887 24.2689 64.3139L24.1348 64.7956C23.4923 64.6169 22.8576 64.4191 22.2315 64.2031L22.3946 63.7304C21.7742 63.5164 21.1623 63.284 20.5595 63.0341L20.368 63.4959C19.7526 63.2407 19.1466 62.9675 18.5506 62.6768L18.7698 62.2274C18.1803 61.9398 17.6008 61.6349 17.0319 61.3134L16.7859 61.7487C16.2064 61.4211 15.6378 61.0766 15.0808 60.7157L15.3526 60.2961C14.8027 59.9398 14.2642 59.5673 13.7378 59.1794L13.4412 59.5819C12.9058 59.1873 12.3827 58.7769 11.8727 58.3514L12.193 57.9674C11.6901 57.5479 11.2001 57.1134 10.7237 56.6648L10.3809 57.0288C9.89701 56.5731 9.42689 56.103 8.97122 55.6191L9.33522 55.2763C8.88655 54.7999 8.45211 54.3099 8.03257 53.807L7.64864 54.1273C7.22314 53.6173 6.81273 53.0942 6.41812 52.5588L6.82061 52.2622C6.43266 51.7358 6.0602 51.1973 5.70393 50.6474L5.2843 50.9192C4.92341 50.3622 4.57887 49.7936 4.25134 49.2141L4.68662 48.9681C4.36508 48.3992 4.0602 47.8197 3.77263 47.2302L3.32325 47.4494C3.03254 46.8534 2.75926 46.2474 2.50406 45.632L2.96592 45.4405C2.71597 44.8377 2.48364 44.2258 2.26958 43.6054L1.79693 43.7685C1.58088 43.1424 1.38314 42.5077 1.20437 41.8652L1.68607 41.7311C1.5113 41.103 1.35492 40.4671 1.21756 39.8242L0.728596 39.9287C0.590318 39.2815 0.471015 38.6273 0.371296 37.9667L0.865695 37.8921C0.768574 37.2487 0.690311 36.5991 0.631492 35.9438L0.133495 35.9885C0.0744531 35.3308 0.0347104 34.6674 0.0148372 33.9992L0.514616 33.9843C0.504895 33.6574 0.5 33.3293 0.5 33C0.5 32.6707 0.504895 32.3426 0.514616 32.0157L0.0148371 32.0008C0.0347104 31.3325 0.0744531 30.6692 0.133495 30.0115L0.631493 30.0562C0.690311 29.4009 0.768574 28.7513 0.865695 28.1079L0.371295 28.0333C0.471015 27.3727 0.590319 26.7185 0.728597 26.0713L1.21756 26.1758C1.35492 25.5329 1.5113 24.897 1.68607 24.2689L1.20437 24.1348C1.38314 23.4923 1.58088 22.8576 1.79693 22.2315L2.26958 22.3946C2.48365 21.7742 2.71597 21.1623 2.96592 20.5595L2.50406 20.368C2.75926 19.7526 3.03254 19.1466 3.32325 18.5506L3.77263 18.7698C4.0602 18.1803 4.36508 17.6008 4.68662 17.0319L4.25134 16.7859C4.57887 16.2064 4.92342 15.6378 5.2843 15.0808L5.70393 15.3526C6.06021 14.8027 6.43266 14.2642 6.82061 13.7378L6.41812 13.4412C6.81274 12.9058 7.22314 12.3827 7.64864 11.8727L8.03257 12.193C8.45211 11.6901 8.88655 11.2001 9.33523 10.7237L8.97122 10.3809C9.42689 9.89701 9.89701 9.42689 10.3809 8.97122L10.7237 9.33522C11.2001 8.88655 11.6901 8.45211 12.193 8.03257L11.8727 7.64864C12.3827 7.22314 12.9058 6.81273 13.4412 6.41812L13.7378 6.82061C14.2642 6.43266 14.8027 6.0602 15.3526 5.70393L15.0808 5.28429C15.6378 4.92341 16.2064 4.57887 16.7859 4.25134L17.0319 4.68662C17.6008 4.36508 18.1803 4.0602 18.7698 3.77263L18.5506 3.32325C19.1466 3.03254 19.7526 2.75926 20.368 2.50406L20.5595 2.96592C21.1623 2.71597 21.7742 2.48364 22.3946 2.26958L22.2315 1.79693C22.8576 1.58088 23.4923 1.38314 24.1348 1.20437L24.2689 1.68607C24.897 1.5113 25.5329 1.35492 26.1758 1.21756L26.0713 0.728596C26.7185 0.590318 27.3727 0.471015 28.0333 0.371295L28.1079 0.865695C28.7513 0.768574 29.4009 0.690311 30.0562 0.631492L30.0115 0.133495C30.6692 0.0744531 31.3325 0.0347104 32.0008 0.0148371L32.0157 0.514616C32.3426 0.504895 32.6707 0.5 33 0.5C33.3293 0.5 33.6574 0.504895 33.9843 0.514616L33.9992 0.0148372C34.6674 0.0347104 35.3308 0.0744531 35.9885 0.133495L35.9438 0.631493C36.5991 0.690312 37.2487 0.768574 37.8921 0.865695L37.9667 0.371295C38.6273 0.471015 39.2815 0.590319 39.9287 0.728597L39.8242 1.21756C40.4671 1.35492 41.103 1.5113 41.7311 1.68607L41.8652 1.20437C42.5077 1.38314 43.1424 1.58088 43.7685 1.79693L43.6054 2.26958C44.2258 2.48365 44.8377 2.71597 45.4405 2.96592L45.632 2.50406C46.2474 2.75926 46.8534 3.03254 47.4494 3.32325L47.2302 3.77263C47.8197 4.0602 48.3992 4.36508 48.9681 4.68662L49.2141 4.25134C49.7936 4.57887 50.3622 4.92342 50.9192 5.2843L50.6474 5.70393C51.1973 6.06021 51.7358 6.43266 52.2622 6.82061L52.5588 6.41812C53.0942 6.81274 53.6173 7.22314 54.1273 7.64864L53.807 8.03257C54.3099 8.45211 54.7999 8.88655 55.2763 9.33523L55.6191 8.97122C56.103 9.42689 56.5731 9.89701 57.0288 10.3809L56.6648 10.7237C57.1134 11.2001 57.5479 11.6901 57.9674 12.193L58.3514 11.8727C58.7769 12.3827 59.1873 12.9058 59.5819 13.4412L59.1794 13.7378C59.5673 14.2642 59.9398 14.8027 60.2961 15.3526L60.7157 15.0808C61.0766 15.6378 61.4211 16.2064 61.7487 16.7859L61.3134 17.0319C61.6349 17.6008 61.9398 18.1803 62.2274 18.7698L62.6768 18.5506C62.9675 19.1466 63.2407 19.7526 63.4959 20.368L63.0341 20.5595C63.284 21.1623 63.5164 21.7742 63.7304 22.3946L64.2031 22.2315C64.4191 22.8576 64.6169 23.4923 64.7956 24.1348L64.3139 24.2689C64.4887 24.897 64.6451 25.5329 64.7824 26.1758L65.2714 26.0713C65.4097 26.7185 65.529 27.3727 65.6287 28.0333L65.1343 28.1079C65.2314 28.7513 65.3097 29.4009 65.3685 30.0562L65.8665 30.0115C65.9256 30.6692 65.9653 31.3325 65.9852 32.0008L65.4854 32.0157C65.4951 32.3426 65.5 32.6707 65.5 33C65.5 33.3293 65.4951 33.6574 65.4854 33.9843L65.9852 33.9992C65.9653 34.6674 65.9256 35.3308 65.8665 35.9885L65.3685 35.9438C65.3097 36.5991 65.2314 37.2487 65.1343 37.8921L65.6287 37.9667C65.529 38.6273 65.4097 39.2815 65.2714 39.9287L64.7824 39.8242C64.6451 40.4671 64.4887 41.103 64.3139 41.7311L64.7956 41.8652C64.6169 42.5077 64.4191 43.1424 64.2031 43.7685L63.7304 43.6054C63.5164 44.2258 63.284 44.8377 63.0341 45.4405L63.4959 45.632C63.2407 46.2474 62.9675 46.8534 62.6768 47.4494L62.2274 47.2302C61.9398 47.8197 61.6349 48.3992 61.3134 48.9681L61.7487 49.2141C61.4211 49.7936 61.0766 50.3622 60.7157 50.9192L60.2961 50.6474C59.9398 51.1973 59.5673 51.7358 59.1794 52.2622L59.5819 52.5588C59.1873 53.0942 58.7769 53.6173 58.3514 54.1273L57.9674 53.807C57.5479 54.3099 57.1134 54.7999 56.6648 55.2763L57.0288 55.6191C56.5731 56.103 56.103 56.5731 55.6191 57.0288L55.2763 56.6648C54.7999 57.1134 54.3099 57.5479 53.807 57.9674L54.1273 58.3514C53.6173 58.7769 53.0942 59.1873 52.5588 59.5819L52.2622 59.1794C51.7358 59.5673 51.1973 59.9398 50.6474 60.2961L50.9192 60.7157C50.3622 61.0766 49.7936 61.4211 49.2141 61.7487L48.9681 61.3134C48.3992 61.6349 47.8197 61.9398 47.2302 62.2274L47.4494 62.6768C46.8534 62.9675 46.2474 63.2407 45.632 63.4959L45.4405 63.0341C44.8377 63.284 44.2258 63.5164 43.6054 63.7304L43.7685 64.2031C43.1424 64.4191 42.5077 64.6169 41.8652 64.7956L41.7311 64.3139C41.103 64.4887 40.4671 64.6451 39.8242 64.7824L39.9287 65.2714C39.2815 65.4097 38.6273 65.529 37.9667 65.6287L37.8921 65.1343C37.2487 65.2314 36.5991 65.3097 35.9438 65.3685L35.9885 65.8665C35.3308 65.9256 34.6674 65.9653 33.9992 65.9852L33.9843 65.4854C33.6574 65.4951 33.3293 65.5 33 65.5Z" fill="white" stroke="#6938D3" stroke-dasharray="2"/>
</svg>
