<svg width="32" height="31" viewBox="0 0 32 31" fill="none" xmlns="http://www.w3.org/2000/svg">
<path d="M32 15.5C32 24.0625 24.8258 31 15.9742 31C8.63226 31 2.45161 26.2313 0.554839 19.725L6.69677 22.1812C7.10968 24.1875 8.94839 25.7062 11.1419 25.7062C13.671 25.7062 15.7806 23.6812 15.671 21.1125L21.1226 17.35C24.4839 17.4312 27.3032 14.7938 27.3032 11.5063C27.3032 8.28125 24.5935 5.6625 21.2581 5.6625C17.9226 5.6625 15.2129 8.2875 15.2129 11.5063V11.5813L11.3935 16.9375C10.3935 16.8813 9.4129 17.15 8.5871 17.6938L0 14.2563C0.658064 6.275 7.55484 0 15.9742 0C24.8258 0 32 6.9375 32 15.5ZM10.0452 23.5187L8.07742 22.7313C8.43901 23.4586 9.06336 24.0323 9.83226 24.3438C11.5677 25.0438 13.5613 24.2437 14.2839 22.5688C14.6323 21.7563 14.6387 20.8625 14.2903 20.05C13.9419 19.2375 13.2903 18.6 12.4516 18.2625C11.6194 17.925 10.729 17.9375 9.94194 18.225L11.9742 19.0375C13.2516 19.55 13.8581 20.9688 13.3226 22.2062C12.7871 23.45 11.3226 24.0312 10.0452 23.5187ZM21.2581 15.4C19.0387 15.4 17.2323 13.65 17.2323 11.5063C17.2323 9.3625 19.0387 7.6125 21.2581 7.6125C23.4774 7.6125 25.2839 9.3625 25.2839 11.5063C25.2839 13.65 23.4839 15.4 21.2581 15.4ZM21.2645 14.425C22.9355 14.425 24.2903 13.1125 24.2903 11.5C24.2903 9.88125 22.9355 8.575 21.2645 8.575C19.5935 8.575 18.2387 9.8875 18.2387 11.5C18.2452 13.1125 19.6 14.425 21.2645 14.425Z" fill="white"/>
</svg>
