<svg width="30" height="28" viewBox="0 0 30 28" fill="none" xmlns="http://www.w3.org/2000/svg">
<path d="M25.4353 2.36479C25.427 2.34499 25.4132 2.32949 25.3964 2.32104C23.4513 1.22783 21.3987 0.448282 19.2899 0.0019121C19.2707 -0.00245108 19.251 0.000696574 19.2333 0.0109074C19.2157 0.0211182 19.2012 0.0378723 19.1918 0.0587871C18.9123 0.680218 18.6586 1.31853 18.4316 1.97129C16.1584 1.54859 13.8462 1.54859 11.5731 1.97129C11.3446 1.31687 11.0868 0.678401 10.8009 0.0587871C10.7911 0.0383269 10.7765 0.0219586 10.759 0.0118141C10.7415 0.00166961 10.7219 -0.00178091 10.7027 0.0019121C8.59374 0.447345 6.541 1.22695 4.59618 2.3211C4.57953 2.32975 4.56549 2.34451 4.55598 2.36335C0.66673 9.47822 -0.398682 16.4182 0.123973 23.2722C0.125443 23.289 0.129656 23.3052 0.136361 23.32C0.143067 23.3347 0.152127 23.3477 0.163004 23.3581C2.42768 25.4122 4.96074 26.9801 7.6541 27.9949C7.67307 28.0019 7.69332 28.0016 7.71214 27.994C7.73096 27.9865 7.74744 27.972 7.75936 27.9527C8.33783 26.9885 8.8504 25.9675 9.29186 24.9C9.29793 24.8854 9.30139 24.8693 9.30202 24.8529C9.30266 24.8365 9.30044 24.8201 9.29553 24.8049C9.29062 24.7896 9.28312 24.7757 9.27353 24.7643C9.26393 24.7528 9.25246 24.7439 9.23987 24.7383C8.43158 24.3594 7.64906 23.9027 6.89966 23.3725C6.88605 23.3627 6.87461 23.3489 6.86637 23.3324C6.85813 23.3159 6.85333 23.2972 6.85239 23.2779C6.85146 23.2586 6.85442 23.2393 6.86102 23.2217C6.86762 23.2041 6.87765 23.1888 6.89022 23.1771C7.04747 23.0328 7.20481 22.8827 7.35497 22.731C7.36831 22.7176 7.38445 22.7089 7.40158 22.7061C7.4187 22.7033 7.43614 22.7064 7.45191 22.715C12.3616 25.4598 17.6769 25.4598 22.5285 22.715C22.5443 22.7058 22.5619 22.7023 22.5793 22.7049C22.5967 22.7075 22.6131 22.716 22.6267 22.7296C22.7769 22.8812 22.9342 23.0328 23.0926 23.1771C23.1052 23.1887 23.1153 23.2039 23.122 23.2214C23.1287 23.2389 23.1318 23.2582 23.131 23.2775C23.1302 23.2968 23.1255 23.3156 23.1174 23.3321C23.1092 23.3487 23.0979 23.3626 23.0843 23.3725C22.3366 23.9072 21.5534 24.3636 20.743 24.7368C20.7304 24.7427 20.719 24.7518 20.7094 24.7634C20.6999 24.7751 20.6925 24.7891 20.6877 24.8045C20.6828 24.8199 20.6807 24.8363 20.6815 24.8528C20.6822 24.8693 20.6858 24.8854 20.692 24.9C21.1408 25.9615 21.6526 26.9812 22.2233 27.951C22.2349 27.9709 22.2513 27.9858 22.2702 27.9936C22.289 28.0015 22.3095 28.0019 22.3285 27.9947C25.0267 26.9834 27.5642 25.4153 29.8317 23.3581C29.8428 23.3482 29.852 23.3356 29.8587 23.321C29.8654 23.3064 29.8695 23.2903 29.8708 23.2736C30.4965 15.3497 28.8232 8.4666 25.4353 2.36479ZM10.0251 19.0988C8.54691 19.0988 7.32895 17.4371 7.32895 15.3963C7.32895 13.3556 8.52329 11.6938 10.0251 11.6938C11.5386 11.6938 12.7448 13.37 12.7212 15.3962C12.7212 17.4371 11.5268 19.0988 10.0251 19.0988ZM19.9935 19.0988C18.5154 19.0988 17.2974 17.4371 17.2974 15.3963C17.2974 13.3556 18.4917 11.6938 19.9935 11.6938C21.5071 11.6938 22.7132 13.37 22.6896 15.3962C22.6896 17.4371 21.5071 19.0988 19.9935 19.0988Z" fill="white"/>
</svg>
